# xmcd
# 
# Track frame offsets:
#     150
#     12912
#     24444
#     38275
#     53597
#     69742
#     81477
#     94212
#     110082
#     123415
#     137490
#     149637
# 
# Disc length: 2179
# 
# Revision: 1
# Processed by: cddbd v1.5.2PL0 Copyright (c) Steve Scherf et al.
# Submitted via: fre:ac v1.0.31
# 
DISCID=a208810c
DTITLE=Various Artist - - Country Rose - Spaß am Leben
DYEAR=1995
DGENRE=Country
TTITLE0=Du bist das Feuer in meiner Seele
TTITLE1=Spaß am Leben
TTITLE2=Drunter und drüber
TTITLE3=Schmalspurcasanova
TTITLE4=Ihre Liebe war power
TTITLE5=Ich hab auf's falsche Pferd gesetzt
TTITLE6=Männer sind viel zu schön
TTITLE7=Leg deine Karten auf den Tisch
TTITLE8=Koffer zu und ab nach Nashville
TTITLE9=Wenn du geh'n willst
TTITLE10=Absolut gut
TTITLE11=Cowboy Boogie
EXTD=YEAR: 1995
EXTT0=
EXTT1=
EXTT2=
EXTT3=
EXTT4=
EXTT5=
EXTT6=
EXTT7=
EXTT8=
EXTT9=
EXTT10=
EXTT11=
PLAYORDER=
